<svg xmlns="http://www.w3.org/2000/svg" viewBox="0 0 1024 1024" fill="none">
  <title>NanuqFi full-body polar bear icon</title>
  <rect x="64" y="64" width="896" height="896" rx="208" fill="#0ea5e9"/>
  <path
    fill="#fff"
    fill-rule="evenodd"
    d="M190 644
       Q198 558 255 506
       L293 472
       L296 379
       Q302 297 369 258
       L438 219
       Q485 192 537 202
       L628 225
       Q703 213 773 242
       Q843 271 882 332
       Q912 378 906 430
       Q902 478 874 510
       L841 548
       L828 741
       Q825 786 780 786
       L739 786
       Q699 786 703 746
       L718 590
       L612 590
       L593 758
       Q589 800 547 800
       L506 800
       Q466 800 470 761
       L488 590
       L390 590
       L369 752
       Q364 794 323 794
       L280 794
       Q240 794 244 754
       L261 610
       L190 644
       Z

       M739 282
       L775 228
       Q788 210 807 217
       Q827 225 830 247
       L828 311
       Z

       M684 590
       L663 590
       L648 739
       Q645 768 674 768
       L686 768
       Q711 768 708 742
       Z

       M335 590
       L314 590
       L300 735
       Q297 762 324 762
       L338 762
       Q361 762 358 739
       Z"
    clip-rule="evenodd"/>
  <circle cx="756" cy="362" r="16" fill="#0c4a6e"/>
</svg>
